# xmcd
#
# Track frame offsets:
#	150
#	11870
#	23077
#	49360
#	63815
#	77405
#	90812
#	104387
#	125170
#	154097
#
# Disc length: 2310 seconds
#
# Revision: 0
# Processed by: cddbd v1.4PL0 Copyright (c) Steve Scherf et al.
# Submitted via: dBpowerAMP V4.0
#
DISCID=7209040a
DTITLE=Oscar Jordan - Mister Bad Luck
DYEAR=1900
DGENRE=Blues
TTITLE0=It's the Truth
TTITLE1=Live to Tell
TTITLE2=You Better Run
TTITLE3=Thinking Out Loud
TTITLE4=Hey Now Baby!
TTITLE5=The One That Got Away
TTITLE6=Mister Bad Luck
TTITLE7=No Time For Sweet Talk
TTITLE8=Better Off
TTITLE9=Christmas Day
EXTD=
EXTT0=
EXTT1=
EXTT2=
EXTT3=
EXTT4=
EXTT5=
EXTT6=
EXTT7=
EXTT8=
EXTT9=
PLAYORDER=
